<svg xmlns="http://www.w3.org/2000/svg" viewBox="0 0 546 109" width="546" height="109" fill="none" role="img" aria-label="Membrane operations"><g transform="translate(11 0.916)" fill="#0A0A14"><path d="M 86.221 25.883 C 86.703 26.162 87 26.677 87 27.234 L 87 78.667 C 87 79.63 85.958 80.23 85.125 79.748 L 74.568 73.633 C 74.182 73.41 73.945 72.998 73.945 72.553 L 73.945 36.852 C 73.945 36.295 73.648 35.78 73.166 35.501 L 40.572 16.623 C 40.186 16.4 39.949 15.988 39.949 15.543 L 39.949 1.251 C 39.949 0.289 40.991 -0.312 41.824 0.17 L 86.221 25.883 Z"></path><path d="M 0 28.501 C 0 27.539 1.042 26.938 1.875 27.42 L 46.273 53.133 C 46.755 53.412 47.051 53.927 47.051 54.484 L 47.051 105.918 C 47.051 106.88 46.009 107.481 45.176 106.998 L 0.623 81.195 C 0.237 80.972 0 80.56 0 80.114 L 0 28.501 Z"></path><path d="M 66.247 39.508 C 66.729 39.787 67.026 40.302 67.026 40.859 L 67.026 92.292 C 67.026 93.255 65.983 93.855 65.151 93.373 L 54.594 87.258 C 54.208 87.035 53.971 86.623 53.971 86.178 L 53.971 50.477 C 53.971 49.92 53.674 49.405 53.192 49.126 L 20.597 30.248 C 20.212 30.025 19.974 29.613 19.974 29.168 L 19.974 14.876 C 19.974 13.914 21.017 13.313 21.849 13.795 L 66.247 39.508 Z"></path></g><g transform="translate(12.135 -22.72)"><svg x="124.865" y="25.605" width="65.602" height="59.95" viewBox="0 0 65.602 59.95"><path d="M 0 59.95 L 0 0 L 14.217 0 L 28.947 35.285 C 31.688 41.879 32.887 46.675 32.887 46.675 C 32.887 46.675 34.257 41.879 36.998 35.285 L 51.728 0 L 65.602 0 L 65.602 59.95 L 55.497 59.95 L 55.497 25.607 C 55.497 18.413 55.754 13.446 55.754 13.446 C 55.754 13.446 54.212 18.156 51.471 24.836 L 36.826 59.95 L 28.776 59.95 L 14.131 24.836 C 11.391 18.242 9.849 13.532 9.849 13.532 C 9.849 13.532 10.106 18.413 10.106 25.607 L 10.106 59.95 L 0 59.95 Z" fill="#0A0A14"></path></svg><svg x="195.902" y="41.706" width="42.1" height="44.534" viewBox="0 0 42.1 44.534"><path d="M 21.839 44.534 C 8.65 44.534 0 35.285 0 22.267 C 0 9.249 8.993 0 21.496 0 C 35.199 0 43.592 10.62 41.879 23.98 L 9.421 23.98 C 10.106 32.116 15.159 36.655 21.839 36.655 C 27.834 36.655 31.517 33.572 32.373 29.889 L 41.794 29.889 C 40.167 38.282 33.829 44.534 21.839 44.534 Z M 9.849 16.872 L 32.202 16.872 C 32.03 11.134 27.748 7.537 21.496 7.537 C 15.416 7.537 11.305 10.791 9.849 16.872 Z" fill="#0A0A14"></path></svg><svg x="243.405" y="41.706" width="66.373" height="43.849" viewBox="0 0 66.373 43.849"><path d="M 0 43.849 L 0 0.685 L 9.335 0.685 L 9.335 7.28 C 11.819 3.254 16.786 0 23.038 0 C 29.461 0 34.6 3.34 36.227 8.136 C 39.481 3.34 44.877 0 50.872 0 C 60.036 0 66.373 6.081 66.373 15.587 L 66.373 43.849 L 57.038 43.849 L 57.038 17.642 C 57.038 11.819 53.955 8.222 48.816 8.222 C 41.965 8.222 37.854 14.645 37.854 22.61 L 37.854 43.849 L 28.519 43.849 L 28.519 17.642 C 28.519 11.819 25.522 8.222 20.297 8.222 C 13.446 8.222 9.335 14.645 9.335 22.61 L 9.335 43.849 L 0 43.849 Z" fill="#0A0A14"></path></svg><svg x="317.112" y="24.92" width="44.62" height="61.32" viewBox="0 0 44.62 61.32"><path d="M 23.466 61.32 C 17.557 61.32 11.904 58.58 9.421 54.555 L 9.421 60.635 L 0 60.635 L 0 0 L 9.421 0 L 9.421 23.466 C 11.904 19.441 17.471 16.786 23.466 16.786 C 36.227 16.786 44.62 25.607 44.62 39.053 C 44.62 52.499 36.227 61.32 23.466 61.32 Z M 22.267 53.27 C 29.718 53.27 35.114 47.446 35.114 39.053 C 35.114 30.575 29.718 24.836 22.267 24.836 C 14.731 24.836 9.421 30.575 9.421 39.053 C 9.421 47.361 14.731 53.27 22.267 53.27 Z" fill="#0A0A14"></path></svg><svg x="367.149" y="41.706" width="27.234" height="43.849" viewBox="0 0 27.234 43.849"><path d="M 0 43.849 L 0 0.685 L 9.335 0.685 L 9.335 7.28 C 11.819 2.569 16.7 0 22.353 0 C 24.151 0 25.779 0.257 27.234 0.942 L 27.234 9.849 C 25.008 8.993 23.381 8.821 21.496 8.821 C 14.816 8.821 9.335 14.731 9.335 27.149 L 9.335 43.849 L 0 43.849 Z" fill="#0A0A14"></path></svg><svg x="393.545" y="41.706" width="44.62" height="44.534" viewBox="0 0 44.62 44.534"><path d="M 21.325 44.534 C 8.479 44.534 0 35.799 0 22.267 C 0 8.736 8.479 0 21.325 0 C 27.149 0 32.716 2.655 35.114 6.68 L 35.114 0.685 L 44.62 0.685 L 44.62 43.849 L 35.114 43.849 L 35.114 37.769 C 32.716 41.879 27.149 44.534 21.325 44.534 Z M 22.353 36.484 C 29.889 36.484 35.114 30.575 35.114 22.267 C 35.114 13.789 29.889 8.05 22.353 8.05 C 14.816 8.05 9.506 13.789 9.506 22.267 C 9.506 30.66 14.816 36.484 22.353 36.484 Z" fill="#0A0A14"></path></svg><svg x="445.981" y="41.706" width="39.91" height="43.849" viewBox="0 0 39.91 43.849"><path d="M 0 43.849 L 0 0.685 L 9.335 0.685 L 9.335 7.108 C 11.819 3.34 17.043 0 23.894 0 C 33.144 0 39.91 5.909 39.91 15.844 L 39.91 43.849 L 30.575 43.849 L 30.575 17.899 C 30.575 11.733 26.978 8.222 21.496 8.222 C 13.96 8.222 9.335 14.645 9.335 25.179 L 9.335 43.849 L 0 43.849 Z" fill="#0A0A14"></path></svg><svg x="490.775" y="41.706" width="42.1" height="44.534" viewBox="0 0 42.1 44.534"><path d="M 21.839 44.534 C 8.65 44.534 0 35.285 0 22.267 C 0 9.249 8.993 0 21.496 0 C 35.199 0 43.592 10.62 41.879 23.98 L 9.421 23.98 C 10.106 32.116 15.159 36.655 21.839 36.655 C 27.834 36.655 31.517 33.572 32.373 29.889 L 41.794 29.889 C 40.167 38.282 33.829 44.534 21.839 44.534 Z M 9.849 16.872 L 32.202 16.872 C 32.03 11.134 27.748 7.537 21.496 7.537 C 15.416 7.537 11.305 10.791 9.849 16.872 Z" fill="#0A0A14"></path></svg></g><text x="137" y="105.6" font-family="&#39;Geist Mono&#39;,&#39;SFMono-Regular&#39;,Menlo,monospace" font-size="29.4" font-weight="500" letter-spacing="5.3" fill="#6B46FF">operations</text></svg>